<svg width="26" height="30" viewBox="0 0 46 50" xmlns="http://www.w3.org/2000/svg"><title>logo</title><g fill="#FFF" fill-rule="evenodd"><path d="M9.385 33.812c-1.043.012-1.914-.442-2.437-1.3-.535-.852-.778-2.058-.787-3.627l-.016-3.79-.02-3.79c-.007-1.568.226-2.777.75-3.634.515-.864 1.38-1.325 2.425-1.32l8.177-.043-3.463-5.992-5.56.03c-2.876.018-4.948.974-6.35 2.888-1.4 1.913-2.12 4.845-2.104 8.802l.016 3.087.013 3.083v.01c.02 3.957.77 6.88 2.19 8.78 1.417 1.898 3.503 2.838 6.377 2.83l5.753-.03 3.446-6.023-8.41.04zM23.717 7.926c.526-.942 1.398-1.47 2.453-1.46.983-.005 2.108.388 3.42 1.135l3.294 1.88 3.295 1.882c1.99 1.14 3.1 2.354 3.12 3.756 0 .497-.144.993-.415 1.47l-4.107 7.195 6.935-.035 2.792-4.89c.852-1.488 1.263-2.908 1.258-4.265-.01-3.162-2.327-6.144-7.16-8.905l-2.68-1.527-2.682-1.53C30.226.907 27.615.067 25.43.08c-2.787.026-4.92 1.365-6.527 4.164L16.068 9.21l3.48 6.022 4.17-7.306zM44.565 30.953l-2.845-4.877-6.94.035 4.188 7.166c.275.482.428.974.432 1.468-.013 1.4-1.11 2.633-3.09 3.785l-3.274 1.914-3.27 1.91c-1.31.766-2.432 1.17-3.416 1.173-1.054.014-1.932-.502-2.47-1.443l-4.123-7.06-3.44 6.015 2.79 4.785c1.633 2.78 3.774 4.097 6.563 4.097 2.188-.01 4.79-.876 7.79-2.626l2.666-1.558 2.667-1.555c4.8-2.81 7.088-5.803 7.068-8.963.003-.007 0-.007.003-.013-.005-1.356-.433-2.77-1.298-4.254z"/></g></svg>
